<svg width="64" height="64" viewBox="0 0 64 64" fill="none" xmlns="http://www.w3.org/2000/svg">
  <rect width="64" height="64" rx="12" fill="#3B82F6"/>
  <rect x="8" y="8" width="48" height="48" rx="8" fill="#FFFFFF" fill-opacity="0.1"/>
  <!-- Bar chart representation -->
  <rect x="16" y="40" width="4" height="12" fill="#FFFFFF" rx="2"/>
  <rect x="22" y="32" width="4" height="20" fill="#FFFFFF" rx="2"/>
  <rect x="28" y="36" width="4" height="16" fill="#FFFFFF" rx="2"/>
  <rect x="34" y="28" width="4" height="24" fill="#FFFFFF" rx="2"/>
  <rect x="40" y="44" width="4" height="8" fill="#FFFFFF" rx="2"/>
  <rect x="46" y="38" width="4" height="14" fill="#FFFFFF" rx="2"/>
  <!-- DNA helix -->
  <path d="M12 16C14 14 16 16 18 14C20 16 22 14 24 16" stroke="#FFFFFF" stroke-width="2" fill="none"/>
  <path d="M12 20C14 22 16 20 18 22C20 20 22 22 24 20" stroke="#FFFFFF" stroke-width="2" fill="none"/>
  <circle cx="12" cy="16" r="1" fill="#FFFFFF"/>
  <circle cx="18" cy="14" r="1" fill="#FFFFFF"/>
  <circle cx="24" cy="16" r="1" fill="#FFFFFF"/>
  <circle cx="12" cy="20" r="1" fill="#FFFFFF"/>
  <circle cx="18" cy="22" r="1" fill="#FFFFFF"/>
  <circle cx="24" cy="20" r="1" fill="#FFFFFF"/>
</svg>