<svg width="64" height="64" viewBox="0 0 64 64" xmlns="http://www.w3.org/2000/svg">
  <!-- Background -->
  <rect width="64" height="64" fill="#fefefe" rx="8"/>
  <rect x="6" y="6" width="52" height="52" fill="#f8fafc" stroke="#e2e8f0" stroke-width="1" rx="4"/>
  
  <!-- Coordinate axes -->
  <!-- X-axis -->
  <line x1="12" y1="50" x2="56" y2="50" stroke="#64748b" stroke-width="2"/>
  <polygon points="56,50 52,48 52,52" fill="#64748b"/>
  
  <!-- Y-axis -->
  <line x1="12" y1="50" x2="12" y2="10" stroke="#64748b" stroke-width="2"/>
  <polygon points="12,10 10,14 14,14" fill="#64748b"/>
  
  <!-- Axis labels -->
  <text x="58" y="52" font-family="Arial, sans-serif" font-size="8" font-weight="bold" fill="#64748b">PC1</text>
  <text x="8" y="8" font-family="Arial, sans-serif" font-size="8" font-weight="bold" fill="#64748b">PC2</text>
  
  <!-- Grid lines (subtle) -->
  <line x1="20" y1="50" x2="20" y2="12" stroke="#e2e8f0" stroke-width="0.5"/>
  <line x1="28" y1="50" x2="28" y2="12" stroke="#e2e8f0" stroke-width="0.5"/>
  <line x1="36" y1="50" x2="36" y2="12" stroke="#e2e8f0" stroke-width="0.5"/>
  <line x1="44" y1="50" x2="44" y2="12" stroke="#e2e8f0" stroke-width="0.5"/>
  
  <line x1="12" y1="42" x2="54" y2="42" stroke="#e2e8f0" stroke-width="0.5"/>
  <line x1="12" y1="34" x2="54" y2="34" stroke="#e2e8f0" stroke-width="0.5"/>
  <line x1="12" y1="26" x2="54" y2="26" stroke="#e2e8f0" stroke-width="0.5"/>
  <line x1="12" y1="18" x2="54" y2="18" stroke="#e2e8f0" stroke-width="0.5"/>
  
  <!-- Data points - Group 1 (Blue) -->
  <circle cx="22" cy="28" r="2" fill="#3b82f6" opacity="0.8"/>
  <circle cx="26" cy="32" r="2" fill="#3b82f6" opacity="0.8"/>
  <circle cx="24" cy="24" r="2" fill="#3b82f6" opacity="0.8"/>
  <circle cx="28" cy="30" r="2" fill="#3b82f6" opacity="0.8"/>
  <circle cx="20" cy="26" r="2" fill="#3b82f6" opacity="0.8"/>
  
  <!-- Data points - Group 2 (Red) -->
  <circle cx="42" cy="20" r="2" fill="#ef4444" opacity="0.8"/>
  <circle cx="46" cy="18" r="2" fill="#ef4444" opacity="0.8"/>
  <circle cx="44" cy="22" r="2" fill="#ef4444" opacity="0.8"/>
  <circle cx="48" cy="16" r="2" fill="#ef4444" opacity="0.8"/>
  <circle cx="40" cy="24" r="2" fill="#ef4444" opacity="0.8"/>
  
  <!-- Data points - Group 3 (Green) -->
  <circle cx="32" cy="42" r="2" fill="#10b981" opacity="0.8"/>
  <circle cx="36" cy="44" r="2" fill="#10b981" opacity="0.8"/>
  <circle cx="34" cy="38" r="2" fill="#10b981" opacity="0.8"/>
  <circle cx="38" cy="40" r="2" fill="#10b981" opacity="0.8"/>
  <circle cx="30" cy="40" r="2" fill="#10b981" opacity="0.8"/>
  
  <!-- Principal component vectors (arrows) -->
  <line x1="12" y1="50" x2="35" y2="27" stroke="#8b5cf6" stroke-width="2" opacity="0.7"/>
  <polygon points="35,27 31,29 33,25" fill="#8b5cf6" opacity="0.7"/>
  
  <line x1="12" y1="50" x2="25" y2="37" stroke="#f59e0b" stroke-width="2" opacity="0.7"/>
  <polygon points="25,37 21,39 23,35" fill="#f59e0b" opacity="0.7"/>
  
  <!-- Legend -->
  <text x="32" y="58" text-anchor="middle" font-family="Arial, sans-serif" font-size="7" font-weight="bold" fill="#475569">PCA</text>
</svg>