<svg width="64" height="64" viewBox="0 0 64 64" xmlns="http://www.w3.org/2000/svg">
  <!-- Background -->
  <rect width="64" height="64" fill="#fefefe" rx="8"/>
  <rect x="6" y="6" width="52" height="52" fill="#f8fafc" stroke="#e2e8f0" stroke-width="1" rx="4"/>
  
  <!-- Sequence 1 -->
  <rect x="10" y="16" width="44" height="6" fill="#f1f5f9" stroke="#cbd5e1" stroke-width="1" rx="1"/>
  <text x="12" y="14" font-family="Arial, sans-serif" font-size="6" fill="#64748b">Seq1:</text>
  
  <!-- DNA bases for sequence 1 -->
  <rect x="12" y="17" width="4" height="4" fill="#ef4444" rx="1"/>
  <text x="14" y="20" text-anchor="middle" font-family="monospace" font-size="5" font-weight="bold" fill="white">A</text>
  
  <rect x="17" y="17" width="4" height="4" fill="#3b82f6" rx="1"/>
  <text x="19" y="20" text-anchor="middle" font-family="monospace" font-size="5" font-weight="bold" fill="white">T</text>
  
  <rect x="22" y="17" width="4" height="4" fill="#10b981" rx="1"/>
  <text x="24" y="20" text-anchor="middle" font-family="monospace" font-size="5" font-weight="bold" fill="white">G</text>
  
  <rect x="27" y="17" width="4" height="4" fill="#f59e0b" rx="1"/>
  <text x="29" y="20" text-anchor="middle" font-family="monospace" font-size="5" font-weight="bold" fill="white">C</text>
  
  <rect x="32" y="17" width="4" height="4" fill="#ef4444" rx="1"/>
  <text x="34" y="20" text-anchor="middle" font-family="monospace" font-size="5" font-weight="bold" fill="white">A</text>
  
  <rect x="37" y="17" width="4" height="4" fill="#3b82f6" rx="1"/>
  <text x="39" y="20" text-anchor="middle" font-family="monospace" font-size="5" font-weight="bold" fill="white">T</text>
  
  <rect x="42" y="17" width="4" height="4" fill="#10b981" rx="1"/>
  <text x="44" y="20" text-anchor="middle" font-family="monospace" font-size="5" font-weight="bold" fill="white">G</text>
  
  <rect x="47" y="17" width="4" height="4" fill="#f59e0b" rx="1"/>
  <text x="49" y="20" text-anchor="middle" font-family="monospace" font-size="5" font-weight="bold" fill="white">C</text>
  
  <!-- Alignment indicators -->
  <line x1="14" y1="24" x2="14" y2="26" stroke="#10b981" stroke-width="2"/>
  <line x1="19" y1="24" x2="19" y2="26" stroke="#10b981" stroke-width="2"/>
  <line x1="24" y1="24" x2="24" y2="26" stroke="#10b981" stroke-width="2"/>
  <line x1="29" y1="24" x2="29" y2="26" stroke="#ef4444" stroke-width="2"/>
  <line x1="34" y1="24" x2="34" y2="26" stroke="#10b981" stroke-width="2"/>
  <line x1="39" y1="24" x2="39" y2="26" stroke="#10b981" stroke-width="2"/>
  <line x1="44" y1="24" x2="44" y2="26" stroke="#10b981" stroke-width="2"/>
  <line x1="49" y1="24" x2="49" y2="26" stroke="#10b981" stroke-width="2"/>
  
  <!-- Sequence 2 -->
  <rect x="10" y="28" width="44" height="6" fill="#f1f5f9" stroke="#cbd5e1" stroke-width="1" rx="1"/>
  <text x="12" y="26" font-family="Arial, sans-serif" font-size="6" fill="#64748b">Seq2:</text>
  
  <!-- DNA bases for sequence 2 -->
  <rect x="12" y="29" width="4" height="4" fill="#ef4444" rx="1"/>
  <text x="14" y="32" text-anchor="middle" font-family="monospace" font-size="5" font-weight="bold" fill="white">A</text>
  
  <rect x="17" y="29" width="4" height="4" fill="#3b82f6" rx="1"/>
  <text x="19" y="32" text-anchor="middle" font-family="monospace" font-size="5" font-weight="bold" fill="white">T</text>
  
  <rect x="22" y="29" width="4" height="4" fill="#10b981" rx="1"/>
  <text x="24" y="32" text-anchor="middle" font-family="monospace" font-size="5" font-weight="bold" fill="white">G</text>
  
  <rect x="27" y="29" width="4" height="4" fill="#3b82f6" rx="1"/>
  <text x="29" y="32" text-anchor="middle" font-family="monospace" font-size="5" font-weight="bold" fill="white">T</text>
  
  <rect x="32" y="29" width="4" height="4" fill="#ef4444" rx="1"/>
  <text x="34" y="32" text-anchor="middle" font-family="monospace" font-size="5" font-weight="bold" fill="white">A</text>
  
  <rect x="37" y="29" width="4" height="4" fill="#3b82f6" rx="1"/>
  <text x="39" y="32" text-anchor="middle" font-family="monospace" font-size="5" font-weight="bold" fill="white">T</text>
  
  <rect x="42" y="29" width="4" height="4" fill="#10b981" rx="1"/>
  <text x="44" y="32" text-anchor="middle" font-family="monospace" font-size="5" font-weight="bold" fill="white">G</text>
  
  <rect x="47" y="29" width="4" height="4" fill="#f59e0b" rx="1"/>
  <text x="49" y="32" text-anchor="middle" font-family="monospace" font-size="5" font-weight="bold" fill="white">C</text>
  
  <!-- Similarity score -->
  <rect x="10" y="40" width="44" height="8" fill="#f0f9ff" stroke="#0ea5e9" stroke-width="1" rx="2"/>
  <text x="32" y="44" text-anchor="middle" font-family="Arial, sans-serif" font-size="7" font-weight="bold" fill="#0ea5e9">Similarity: 87.5%</text>
  <text x="32" y="47" text-anchor="middle" font-family="Arial, sans-serif" font-size="5" fill="#64748b">7/8 matches</text>
  
  <!-- Title -->
  <text x="32" y="8" text-anchor="middle" font-family="Arial, sans-serif" font-size="7" font-weight="bold" fill="#475569">Sequence Alignment</text>
</svg>