<svg width="64" height="64" viewBox="0 0 64 64" xmlns="http://www.w3.org/2000/svg">
  <!-- Background -->
  <rect width="64" height="64" fill="#fefefe" rx="8"/>
  <rect x="4" y="4" width="56" height="56" fill="#f8fafc" stroke="#e2e8f0" stroke-width="1" rx="6"/>
  
  <!-- Cluster 1 (Top-left) - Blue cells -->
  <circle cx="16" cy="16" r="2.5" fill="#3b82f6" opacity="0.8"/>
  <circle cx="20" cy="14" r="2" fill="#3b82f6" opacity="0.7"/>
  <circle cx="14" cy="20" r="2" fill="#3b82f6" opacity="0.7"/>
  <circle cx="18" cy="19" r="1.5" fill="#3b82f6" opacity="0.9"/>
  <circle cx="22" cy="18" r="1.8" fill="#3b82f6" opacity="0.6"/>
  
  <!-- Cluster 2 (Top-right) - Green cells -->
  <circle cx="48" cy="16" r="2.5" fill="#10b981" opacity="0.8"/>
  <circle cx="44" cy="14" r="2" fill="#10b981" opacity="0.7"/>
  <circle cx="50" cy="20" r="2" fill="#10b981" opacity="0.7"/>
  <circle cx="46" cy="19" r="1.5" fill="#10b981" opacity="0.9"/>
  <circle cx="42" cy="18" r="1.8" fill="#10b981" opacity="0.6"/>
  
  <!-- Cluster 3 (Bottom-left) - Purple cells -->
  <circle cx="16" cy="48" r="2.5" fill="#8b5cf6" opacity="0.8"/>
  <circle cx="20" cy="50" r="2" fill="#8b5cf6" opacity="0.7"/>
  <circle cx="14" cy="44" r="2" fill="#8b5cf6" opacity="0.7"/>
  <circle cx="18" cy="45" r="1.5" fill="#8b5cf6" opacity="0.9"/>
  <circle cx="22" cy="46" r="1.8" fill="#8b5cf6" opacity="0.6"/>
  
  <!-- Cluster 4 (Bottom-right) - Orange cells -->
  <circle cx="48" cy="48" r="2.5" fill="#f59e0b" opacity="0.8"/>
  <circle cx="44" cy="50" r="2" fill="#f59e0b" opacity="0.7"/>
  <circle cx="50" cy="44" r="2" fill="#f59e0b" opacity="0.7"/>
  <circle cx="46" cy="45" r="1.5" fill="#f59e0b" opacity="0.9"/>
  <circle cx="42" cy="46" r="1.8" fill="#f59e0b" opacity="0.6"/>
  
  <!-- Central scattered cells -->
  <circle cx="32" cy="28" r="1.5" fill="#64748b" opacity="0.5"/>
  <circle cx="36" cy="32" r="1.5" fill="#64748b" opacity="0.5"/>
  <circle cx="28" cy="36" r="1.5" fill="#64748b" opacity="0.5"/>
  <circle cx="34" cy="38" r="1.2" fill="#64748b" opacity="0.4"/>
  <circle cx="30" cy="30" r="1.2" fill="#64748b" opacity="0.4"/>
  
  <!-- Cluster boundaries (dashed circles) -->
  <circle cx="18" cy="17" r="8" fill="none" stroke="#3b82f6" stroke-width="1" stroke-dasharray="2,2" opacity="0.4"/>
  <circle cx="46" cy="17" r="8" fill="none" stroke="#10b981" stroke-width="1" stroke-dasharray="2,2" opacity="0.4"/>
  <circle cx="18" cy="47" r="8" fill="none" stroke="#8b5cf6" stroke-width="1" stroke-dasharray="2,2" opacity="0.4"/>
  <circle cx="46" cy="47" r="8" fill="none" stroke="#f59e0b" stroke-width="1" stroke-dasharray="2,2" opacity="0.4"/>
  
  <!-- Title -->
  <text x="32" y="58" text-anchor="middle" font-family="Arial, sans-serif" font-size="7" font-weight="bold" fill="#475569">Clustering</text>
</svg>