<svg xmlns="http://www.w3.org/2000/svg" width="1536" height="1024" viewBox="0 0 1536 1024" role="img" aria-label="Single-cell RNA-seq pipeline preview">
  <defs>
    <linearGradient id="bg" x1="0" x2="1" y1="0" y2="1">
      <stop offset="0" stop-color="#f8fbff"/>
      <stop offset="1" stop-color="#eaf5ff"/>
    </linearGradient>
    <linearGradient id="blue" x1="0" x2="1" y1="0" y2="1">
      <stop offset="0" stop-color="#38bdf8"/>
      <stop offset="1" stop-color="#2563eb"/>
    </linearGradient>
    <filter id="shadow" x="-20%" y="-20%" width="140%" height="140%">
      <feDropShadow dx="0" dy="18" stdDeviation="18" flood-color="#0f172a" flood-opacity="0.12"/>
    </filter>
  </defs>
  <rect width="1536" height="1024" fill="url(#bg)"/>
  <circle cx="1220" cy="132" r="220" fill="#dbeafe" opacity="0.55"/>
  <circle cx="244" cy="890" r="260" fill="#ccfbf1" opacity="0.48"/>
  <g opacity="0.42" stroke="#bfdbfe" stroke-width="2">
    <path d="M84 206H1452"/>
    <path d="M84 390H1452"/>
    <path d="M84 574H1452"/>
    <path d="M84 758H1452"/>
    <path d="M234 92V932"/>
    <path d="M508 92V932"/>
    <path d="M782 92V932"/>
    <path d="M1056 92V932"/>
    <path d="M1330 92V932"/>
  </g>
  <g filter="url(#shadow)">
    <rect x="126" y="298" width="200" height="190" rx="26" fill="#fff"/>
    <rect x="126" y="298" width="200" height="54" rx="26" fill="#eff6ff"/>
    <path d="M176 406h100M176 436h82M176 466h118" stroke="#60a5fa" stroke-width="14" stroke-linecap="round"/>
    <rect x="392" y="268" width="200" height="250" rx="26" fill="#fff"/>
    <path d="M442 454c18-72 56-92 88-146" fill="none" stroke="#0ea5e9" stroke-width="12" stroke-linecap="round"/>
    <path d="M432 452h118" stroke="#bfdbfe" stroke-width="10" stroke-linecap="round"/>
    <circle cx="470" cy="388" r="12" fill="#22c55e"/>
    <circle cx="502" cy="348" r="12" fill="#38bdf8"/>
    <circle cx="532" cy="310" r="12" fill="#2563eb"/>
    <rect x="658" y="236" width="220" height="314" rx="30" fill="#fff"/>
    <g transform="translate(704 292)">
      <circle cx="48" cy="58" r="10" fill="#60a5fa"/>
      <circle cx="80" cy="38" r="9" fill="#38bdf8"/>
      <circle cx="116" cy="72" r="11" fill="#22c55e"/>
      <circle cx="74" cy="114" r="10" fill="#2563eb"/>
      <circle cx="124" cy="122" r="8" fill="#f59e0b"/>
      <path d="M34 152h132" stroke="#dbeafe" stroke-width="10" stroke-linecap="round"/>
      <path d="M34 182h96" stroke="#dbeafe" stroke-width="10" stroke-linecap="round"/>
    </g>
    <rect x="944" y="268" width="220" height="250" rx="30" fill="#fff"/>
    <g transform="translate(992 326)">
      <circle cx="44" cy="44" r="24" fill="#bfdbfe"/>
      <circle cx="110" cy="58" r="28" fill="#93c5fd"/>
      <circle cx="72" cy="116" r="30" fill="#22c55e" opacity="0.82"/>
      <circle cx="132" cy="126" r="18" fill="#f59e0b" opacity="0.82"/>
      <path d="M24 172h142" stroke="#dbeafe" stroke-width="10" stroke-linecap="round"/>
    </g>
    <rect x="1230" y="298" width="210" height="190" rx="26" fill="#fff"/>
    <g transform="translate(1274 344)">
      <rect x="0" y="0" width="26" height="96" rx="8" fill="#dbeafe"/>
      <rect x="42" y="28" width="26" height="68" rx="8" fill="#60a5fa"/>
      <rect x="84" y="14" width="26" height="82" rx="8" fill="#38bdf8"/>
      <rect x="126" y="44" width="26" height="52" rx="8" fill="#22c55e"/>
    </g>
  </g>
  <g fill="none" stroke="url(#blue)" stroke-width="12" stroke-linecap="round" stroke-linejoin="round">
    <path d="M332 393h46"/>
    <path d="M366 371l24 22-24 22"/>
    <path d="M598 393h46"/>
    <path d="M632 371l24 22-24 22"/>
    <path d="M884 393h46"/>
    <path d="M918 371l24 22-24 22"/>
    <path d="M1170 393h46"/>
    <path d="M1204 371l24 22-24 22"/>
  </g>
  <g transform="translate(322 660)" filter="url(#shadow)">
    <rect width="892" height="120" rx="32" fill="#fff" opacity="0.95"/>
    <g transform="translate(52 34)">
      <circle cx="26" cy="26" r="26" fill="#dbeafe"/>
      <path d="M86 20h680M86 52h510" stroke="#cbd5e1" stroke-width="12" stroke-linecap="round"/>
    </g>
  </g>
</svg>
