<svg xmlns="http://www.w3.org/2000/svg" width="1536" height="1024" viewBox="0 0 1536 1024" role="img" aria-label="Spatial transcriptomics pipeline preview">
  <defs>
    <linearGradient id="bg" x1="0" x2="1" y1="0" y2="1">
      <stop offset="0" stop-color="#f8fffb"/>
      <stop offset="1" stop-color="#e8f8f1"/>
    </linearGradient>
    <linearGradient id="green" x1="0" x2="1" y1="0" y2="1">
      <stop offset="0" stop-color="#34d399"/>
      <stop offset="1" stop-color="#0f766e"/>
    </linearGradient>
    <filter id="shadow" x="-20%" y="-20%" width="140%" height="140%">
      <feDropShadow dx="0" dy="18" stdDeviation="18" flood-color="#0f172a" flood-opacity="0.13"/>
    </filter>
  </defs>
  <rect width="1536" height="1024" fill="url(#bg)"/>
  <circle cx="1220" cy="180" r="260" fill="#ccfbf1" opacity="0.58"/>
  <circle cx="206" cy="858" r="280" fill="#dbeafe" opacity="0.38"/>
  <g filter="url(#shadow)">
    <rect x="100" y="214" width="360" height="520" rx="38" fill="#fff"/>
    <path d="M250 316c72-48 160 18 144 108-10 58 36 96 8 150-38 74-166 88-226 34-62-56-36-142-8-196 18-36 34-64 82-96z" fill="#ecfccb"/>
    <path d="M270 342c48-30 104 12 92 74-8 42 26 68 4 104-28 46-112 54-148 18-42-42-20-96 0-132 14-24 26-44 52-64z" fill="#bbf7d0"/>
    <g>
      <circle cx="214" cy="408" r="9" fill="#0ea5e9"/>
      <circle cx="262" cy="374" r="9" fill="#22c55e"/>
      <circle cx="318" cy="400" r="9" fill="#f97316"/>
      <circle cx="360" cy="462" r="9" fill="#14b8a6"/>
      <circle cx="298" cy="500" r="9" fill="#2563eb"/>
      <circle cx="230" cy="536" r="9" fill="#0f766e"/>
      <circle cx="338" cy="574" r="9" fill="#f59e0b"/>
      <circle cx="184" cy="472" r="9" fill="#38bdf8"/>
    </g>
    <rect x="568" y="180" width="300" height="250" rx="34" fill="#fff"/>
    <g transform="translate(626 240)">
      <circle cx="34" cy="34" r="16" fill="#34d399"/>
      <circle cx="86" cy="54" r="18" fill="#0ea5e9"/>
      <circle cx="148" cy="42" r="16" fill="#f97316"/>
      <circle cx="66" cy="118" r="20" fill="#14b8a6"/>
      <circle cx="136" cy="130" r="18" fill="#2563eb"/>
      <path d="M20 176h184" stroke="#dcfce7" stroke-width="12" stroke-linecap="round"/>
    </g>
    <rect x="568" y="500" width="300" height="250" rx="34" fill="#fff"/>
    <g transform="translate(628 552)">
      <rect x="0" y="0" width="170" height="140" rx="18" fill="#ecfdf5"/>
      <path d="M20 112c28-84 76-62 98-104 18 44 44 60 34 104z" fill="#86efac"/>
      <circle cx="48" cy="78" r="10" fill="#0f766e"/>
      <circle cx="94" cy="58" r="10" fill="#22c55e"/>
      <circle cx="126" cy="96" r="10" fill="#f97316"/>
    </g>
    <rect x="976" y="246" width="210" height="420" rx="34" fill="#fff"/>
    <g transform="translate(1020 306)">
      <rect x="0" y="0" width="38" height="270" rx="12" fill="#d1fae5"/>
      <rect x="52" y="44" width="38" height="226" rx="12" fill="#6ee7b7"/>
      <rect x="104" y="96" width="38" height="174" rx="12" fill="#2dd4bf"/>
    </g>
    <rect x="1260" y="306" width="180" height="300" rx="34" fill="#fff"/>
    <g transform="translate(1296 370)">
      <line x1="30" y1="30" x2="96" y2="64" stroke="#99f6e4" stroke-width="8" stroke-linecap="round"/>
      <line x1="96" y1="64" x2="60" y2="132" stroke="#99f6e4" stroke-width="8" stroke-linecap="round"/>
      <line x1="30" y1="30" x2="60" y2="132" stroke="#99f6e4" stroke-width="8" stroke-linecap="round"/>
      <line x1="96" y1="64" x2="128" y2="144" stroke="#99f6e4" stroke-width="8" stroke-linecap="round"/>
      <circle cx="30" cy="30" r="18" fill="#0f766e"/>
      <circle cx="96" cy="64" r="18" fill="#14b8a6"/>
      <circle cx="60" cy="132" r="18" fill="#38bdf8"/>
      <circle cx="128" cy="144" r="18" fill="#f97316"/>
    </g>
  </g>
  <g fill="none" stroke="url(#green)" stroke-width="12" stroke-linecap="round" stroke-linejoin="round">
    <path d="M474 474h78"/>
    <path d="M538 452l26 22-26 22"/>
    <path d="M878 306h82"/>
    <path d="M946 284l26 22-26 22"/>
    <path d="M878 626c46 0 60-110 84-166"/>
    <path d="M952 438l18 30-34 8"/>
    <path d="M1196 456h50"/>
    <path d="M1232 434l26 22-26 22"/>
  </g>
  <g opacity="0.62" stroke="#bbf7d0" stroke-width="2">
    <path d="M72 148h1390"/>
    <path d="M72 824h1390"/>
    <path d="M516 94v836"/>
    <path d="M916 94v836"/>
    <path d="M1228 94v836"/>
  </g>
</svg>
