<svg xmlns="http://www.w3.org/2000/svg" width="1536" height="1024" viewBox="0 0 1536 1024" role="img" aria-label="Single-cell subcluster pipeline preview">
  <defs>
    <linearGradient id="bg" x1="0" x2="1" y1="0" y2="1">
      <stop offset="0" stop-color="#f7feff"/>
      <stop offset="1" stop-color="#e0f2fe"/>
    </linearGradient>
    <linearGradient id="line" x1="0" x2="1" y1="0" y2="0">
      <stop offset="0" stop-color="#06b6d4"/>
      <stop offset="1" stop-color="#0284c7"/>
    </linearGradient>
    <filter id="shadow" x="-20%" y="-20%" width="140%" height="140%">
      <feDropShadow dx="0" dy="18" stdDeviation="18" flood-color="#0f172a" flood-opacity="0.12"/>
    </filter>
  </defs>
  <rect width="1536" height="1024" fill="url(#bg)"/>
  <circle cx="1188" cy="188" r="260" fill="#cffafe" opacity="0.55"/>
  <circle cx="260" cy="860" r="300" fill="#dbeafe" opacity="0.45"/>
  <g filter="url(#shadow)">
    <rect x="120" y="262" width="280" height="340" rx="34" fill="#fff"/>
    <g transform="translate(178 330)">
      <circle cx="64" cy="72" r="20" fill="#38bdf8"/>
      <circle cx="118" cy="52" r="18" fill="#0ea5e9"/>
      <circle cx="160" cy="98" r="20" fill="#22c55e"/>
      <circle cx="90" cy="146" r="18" fill="#2563eb"/>
      <circle cx="168" cy="168" r="16" fill="#f59e0b"/>
      <circle cx="126" cy="210" r="18" fill="#14b8a6"/>
    </g>
    <rect x="624" y="164" width="250" height="250" rx="34" fill="#fff"/>
    <rect x="624" y="466" width="250" height="250" rx="34" fill="#fff"/>
    <rect x="942" y="316" width="250" height="250" rx="34" fill="#fff"/>
    <g transform="translate(676 220)">
      <circle cx="48" cy="42" r="20" fill="#38bdf8"/>
      <circle cx="104" cy="50" r="22" fill="#0ea5e9"/>
      <circle cx="76" cy="108" r="26" fill="#2563eb"/>
      <circle cx="132" cy="126" r="16" fill="#22c55e"/>
      <path d="M24 172h150" stroke="#cbd5e1" stroke-width="10" stroke-linecap="round"/>
    </g>
    <g transform="translate(676 522)">
      <circle cx="52" cy="60" r="22" fill="#14b8a6"/>
      <circle cx="112" cy="42" r="18" fill="#22c55e"/>
      <circle cx="94" cy="112" r="28" fill="#0ea5e9"/>
      <circle cx="148" cy="138" r="16" fill="#f59e0b"/>
      <path d="M24 176h150" stroke="#cbd5e1" stroke-width="10" stroke-linecap="round"/>
    </g>
    <g transform="translate(992 366)">
      <rect x="0" y="0" width="34" height="150" rx="10" fill="#cffafe"/>
      <rect x="46" y="28" width="34" height="122" rx="10" fill="#7dd3fc"/>
      <rect x="92" y="52" width="34" height="98" rx="10" fill="#22c55e"/>
      <rect x="138" y="16" width="34" height="134" rx="10" fill="#fbbf24"/>
    </g>
    <rect x="1222" y="244" width="206" height="420" rx="34" fill="#fff"/>
    <g transform="translate(1272 306)">
      <rect x="0" y="0" width="108" height="34" rx="10" fill="#e0f2fe"/>
      <rect x="0" y="54" width="136" height="34" rx="10" fill="#bae6fd"/>
      <rect x="0" y="108" width="92" height="34" rx="10" fill="#ccfbf1"/>
      <rect x="0" y="162" width="126" height="34" rx="10" fill="#fef3c7"/>
      <rect x="0" y="216" width="82" height="34" rx="10" fill="#dbeafe"/>
      <rect x="0" y="270" width="118" height="34" rx="10" fill="#cffafe"/>
    </g>
  </g>
  <g fill="none" stroke="url(#line)" stroke-width="12" stroke-linecap="round" stroke-linejoin="round">
    <path d="M410 432C500 432 520 290 608 290"/>
    <path d="M586 268l28 22-28 22"/>
    <path d="M410 432C500 432 520 592 608 592"/>
    <path d="M586 570l28 22-28 22"/>
    <path d="M884 290C920 290 910 440 928 440"/>
    <path d="M906 418l24 22-24 22"/>
    <path d="M884 592C920 592 910 440 928 440"/>
    <path d="M1198 440h22"/>
    <path d="M1208 418l24 22-24 22"/>
  </g>
  <g opacity="0.7">
    <path d="M90 166h1340" stroke="#bae6fd" stroke-width="2"/>
    <path d="M90 792h1340" stroke="#bae6fd" stroke-width="2"/>
    <path d="M512 106v812" stroke="#bae6fd" stroke-width="2"/>
    <path d="M1030 106v812" stroke="#bae6fd" stroke-width="2"/>
  </g>
</svg>
