<svg width="64" height="64" viewBox="0 0 64 64" xmlns="http://www.w3.org/2000/svg">
  <!-- Background -->
  <rect width="64" height="64" fill="#fefefe" rx="8"/>
  <rect x="6" y="6" width="52" height="52" fill="#f8fafc" stroke="#e2e8f0" stroke-width="1" rx="4"/>
  
  <!-- Correlation matrix -->
  <rect x="12" y="12" width="40" height="40" fill="#f1f5f9" stroke="#cbd5e1" stroke-width="1" rx="1"/>
  
  <!-- Matrix cells with correlation values -->
  <!-- Row 1 -->
  <rect x="12" y="12" width="8" height="8" fill="#dc2626"/>
  <text x="16" y="17" text-anchor="middle" font-family="Arial, sans-serif" font-size="4" fill="white" font-weight="bold">1.0</text>
  
  <rect x="20" y="12" width="8" height="8" fill="#f97316"/>
  <text x="24" y="17" text-anchor="middle" font-family="Arial, sans-serif" font-size="4" fill="white" font-weight="bold">0.7</text>
  
  <rect x="28" y="12" width="8" height="8" fill="#fbbf24"/>
  <text x="32" y="17" text-anchor="middle" font-family="Arial, sans-serif" font-size="4" fill="white" font-weight="bold">0.3</text>
  
  <rect x="36" y="12" width="8" height="8" fill="#e5e7eb"/>
  <text x="40" y="17" text-anchor="middle" font-family="Arial, sans-serif" font-size="4" fill="#374151" font-weight="bold">0.1</text>
  
  <rect x="44" y="12" width="8" height="8" fill="#93c5fd"/>
  <text x="48" y="17" text-anchor="middle" font-family="Arial, sans-serif" font-size="4" fill="white" font-weight="bold">-0.2</text>
  
  <!-- Row 2 -->
  <rect x="12" y="20" width="8" height="8" fill="#f97316"/>
  <text x="16" y="25" text-anchor="middle" font-family="Arial, sans-serif" font-size="4" fill="white" font-weight="bold">0.7</text>
  
  <rect x="20" y="20" width="8" height="8" fill="#dc2626"/>
  <text x="24" y="25" text-anchor="middle" font-family="Arial, sans-serif" font-size="4" fill="white" font-weight="bold">1.0</text>
  
  <rect x="28" y="20" width="8" height="8" fill="#f59e0b"/>
  <text x="32" y="25" text-anchor="middle" font-family="Arial, sans-serif" font-size="4" fill="white" font-weight="bold">0.5</text>
  
  <rect x="36" y="20" width="8" height="8" fill="#fbbf24"/>
  <text x="40" y="25" text-anchor="middle" font-family="Arial, sans-serif" font-size="4" fill="white" font-weight="bold">0.4</text>
  
  <rect x="44" y="20" width="8" height="8" fill="#e5e7eb"/>
  <text x="48" y="25" text-anchor="middle" font-family="Arial, sans-serif" font-size="4" fill="#374151" font-weight="bold">0.0</text>
  
  <!-- Row 3 -->
  <rect x="12" y="28" width="8" height="8" fill="#fbbf24"/>
  <text x="16" y="33" text-anchor="middle" font-family="Arial, sans-serif" font-size="4" fill="white" font-weight="bold">0.3</text>
  
  <rect x="20" y="28" width="8" height="8" fill="#f59e0b"/>
  <text x="24" y="33" text-anchor="middle" font-family="Arial, sans-serif" font-size="4" fill="white" font-weight="bold">0.5</text>
  
  <rect x="28" y="28" width="8" height="8" fill="#dc2626"/>
  <text x="32" y="33" text-anchor="middle" font-family="Arial, sans-serif" font-size="4" fill="white" font-weight="bold">1.0</text>
  
  <rect x="36" y="28" width="8" height="8" fill="#f97316"/>
  <text x="40" y="33" text-anchor="middle" font-family="Arial, sans-serif" font-size="4" fill="white" font-weight="bold">0.6</text>
  
  <rect x="44" y="28" width="8" height="8" fill="#fbbf24"/>
  <text x="48" y="33" text-anchor="middle" font-family="Arial, sans-serif" font-size="4" fill="white" font-weight="bold">0.2</text>
  
  <!-- Row 4 -->
  <rect x="12" y="36" width="8" height="8" fill="#e5e7eb"/>
  <text x="16" y="41" text-anchor="middle" font-family="Arial, sans-serif" font-size="4" fill="#374151" font-weight="bold">0.1</text>
  
  <rect x="20" y="36" width="8" height="8" fill="#fbbf24"/>
  <text x="24" y="41" text-anchor="middle" font-family="Arial, sans-serif" font-size="4" fill="white" font-weight="bold">0.4</text>
  
  <rect x="28" y="36" width="8" height="8" fill="#f97316"/>
  <text x="32" y="41" text-anchor="middle" font-family="Arial, sans-serif" font-size="4" fill="white" font-weight="bold">0.6</text>
  
  <rect x="36" y="36" width="8" height="8" fill="#dc2626"/>
  <text x="40" y="41" text-anchor="middle" font-family="Arial, sans-serif" font-size="4" fill="white" font-weight="bold">1.0</text>
  
  <rect x="44" y="36" width="8" height="8" fill="#f59e0b"/>
  <text x="48" y="41" text-anchor="middle" font-family="Arial, sans-serif" font-size="4" fill="white" font-weight="bold">0.3</text>
  
  <!-- Row 5 -->
  <rect x="12" y="44" width="8" height="8" fill="#93c5fd"/>
  <text x="16" y="49" text-anchor="middle" font-family="Arial, sans-serif" font-size="4" fill="white" font-weight="bold">-0.2</text>
  
  <rect x="20" y="44" width="8" height="8" fill="#e5e7eb"/>
  <text x="24" y="49" text-anchor="middle" font-family="Arial, sans-serif" font-size="4" fill="#374151" font-weight="bold">0.0</text>
  
  <rect x="28" y="44" width="8" height="8" fill="#fbbf24"/>
  <text x="32" y="49" text-anchor="middle" font-family="Arial, sans-serif" font-size="4" fill="white" font-weight="bold">0.2</text>
  
  <rect x="36" y="44" width="8" height="8" fill="#f59e0b"/>
  <text x="40" y="49" text-anchor="middle" font-family="Arial, sans-serif" font-size="4" fill="white" font-weight="bold">0.3</text>
  
  <rect x="44" y="44" width="8" height="8" fill="#dc2626"/>
  <text x="48" y="49" text-anchor="middle" font-family="Arial, sans-serif" font-size="4" fill="white" font-weight="bold">1.0</text>
  
  <!-- Variable labels -->
  <text x="16" y="56" text-anchor="middle" font-family="Arial, sans-serif" font-size="4" fill="#64748b" font-weight="bold">X1</text>
  <text x="24" y="56" text-anchor="middle" font-family="Arial, sans-serif" font-size="4" fill="#64748b" font-weight="bold">X2</text>
  <text x="32" y="56" text-anchor="middle" font-family="Arial, sans-serif" font-size="4" fill="#64748b" font-weight="bold">X3</text>
  <text x="40" y="56" text-anchor="middle" font-family="Arial, sans-serif" font-size="4" fill="#64748b" font-weight="bold">X4</text>
  <text x="48" y="56" text-anchor="middle" font-family="Arial, sans-serif" font-size="4" fill="#64748b" font-weight="bold">X5</text>
  
  <text x="8" y="17" text-anchor="middle" font-family="Arial, sans-serif" font-size="4" fill="#64748b" font-weight="bold">X1</text>
  <text x="8" y="25" text-anchor="middle" font-family="Arial, sans-serif" font-size="4" fill="#64748b" font-weight="bold">X2</text>
  <text x="8" y="33" text-anchor="middle" font-family="Arial, sans-serif" font-size="4" fill="#64748b" font-weight="bold">X3</text>
  <text x="8" y="41" text-anchor="middle" font-family="Arial, sans-serif" font-size="4" fill="#64748b" font-weight="bold">X4</text>
  <text x="8" y="49" text-anchor="middle" font-family="Arial, sans-serif" font-size="4" fill="#64748b" font-weight="bold">X5</text>
  
  <!-- Color scale legend -->
  <rect x="54" y="12" width="2" height="40" fill="url(#correlationGradient)" stroke="#cbd5e1" stroke-width="0.5"/>
  
  <!-- Gradient definition -->
  <defs>
    <linearGradient id="correlationGradient" x1="0%" y1="0%" x2="0%" y2="100%">
      <stop offset="0%" style="stop-color:#dc2626;stop-opacity:1" />
      <stop offset="25%" style="stop-color:#f97316;stop-opacity:1" />
      <stop offset="50%" style="stop-color:#fbbf24;stop-opacity:1" />
      <stop offset="75%" style="stop-color:#e5e7eb;stop-opacity:1" />
      <stop offset="100%" style="stop-color:#3b82f6;stop-opacity:1" />
    </linearGradient>
  </defs>
  
  <!-- Scale labels -->
  <text x="58" y="14" font-family="Arial, sans-serif" font-size="3" fill="#64748b">1.0</text>
  <text x="58" y="32" font-family="Arial, sans-serif" font-size="3" fill="#64748b">0.0</text>
  <text x="58" y="50" font-family="Arial, sans-serif" font-size="3" fill="#64748b">-1.0</text>
  
  <!-- Title -->
  <text x="32" y="8" text-anchor="middle" font-family="Arial, sans-serif" font-size="7" font-weight="bold" fill="#475569">Correlation Matrix</text>
</svg>