<svg width="64" height="64" viewBox="0 0 64 64" fill="none" xmlns="http://www.w3.org/2000/svg">
  <rect width="64" height="64" rx="12" fill="#06B6D4"/>
  <rect x="8" y="8" width="48" height="48" rx="8" fill="#FFFFFF" fill-opacity="0.1"/>
  <!-- Heatmap grid -->
  <rect x="16" y="16" width="6" height="6" fill="#EF4444" rx="1"/>
  <rect x="24" y="16" width="6" height="6" fill="#F97316" rx="1"/>
  <rect x="32" y="16" width="6" height="6" fill="#EAB308" rx="1"/>
  <rect x="40" y="16" width="6" height="6" fill="#22C55E" rx="1"/>
  
  <rect x="16" y="24" width="6" height="6" fill="#F97316" rx="1"/>
  <rect x="24" y="24" width="6" height="6" fill="#EAB308" rx="1"/>
  <rect x="32" y="24" width="6" height="6" fill="#22C55E" rx="1"/>
  <rect x="40" y="24" width="6" height="6" fill="#3B82F6" rx="1"/>
  
  <rect x="16" y="32" width="6" height="6" fill="#EAB308" rx="1"/>
  <rect x="24" y="32" width="6" height="6" fill="#22C55E" rx="1"/>
  <rect x="32" y="32" width="6" height="6" fill="#3B82F6" rx="1"/>
  <rect x="40" y="32" width="6" height="6" fill="#8B5CF6" rx="1"/>
  
  <rect x="16" y="40" width="6" height="6" fill="#22C55E" rx="1"/>
  <rect x="24" y="40" width="6" height="6" fill="#3B82F6" rx="1"/>
  <rect x="32" y="40" width="6" height="6" fill="#8B5CF6" rx="1"/>
  <rect x="40" y="40" width="6" height="6" fill="#EC4899" rx="1"/>
  
  <!-- Color scale indicator -->
  <rect x="48" y="16" width="2" height="30" fill="url(#heatmapGradient)" rx="1"/>
  
  <defs>
    <linearGradient id="heatmapGradient" x1="0%" y1="0%" x2="0%" y2="100%">
      <stop offset="0%" style="stop-color:#EF4444"/>
      <stop offset="25%" style="stop-color:#F97316"/>
      <stop offset="50%" style="stop-color:#EAB308"/>
      <stop offset="75%" style="stop-color:#22C55E"/>
      <stop offset="100%" style="stop-color:#3B82F6"/>
    </linearGradient>
  </defs>
</svg>