<svg width="64" height="64" viewBox="0 0 64 64" xmlns="http://www.w3.org/2000/svg">
  <!-- Background circle -->
  <circle cx="32" cy="32" r="30" fill="#f0f9ff" stroke="#0ea5e9" stroke-width="2"/>
  
  <!-- KEGG pathway network -->
  <!-- Central node -->
  <circle cx="32" cy="32" r="4" fill="#0ea5e9"/>
  
  <!-- Pathway nodes -->
  <circle cx="20" cy="20" r="3" fill="#10b981"/>
  <circle cx="44" cy="20" r="3" fill="#10b981"/>
  <circle cx="20" cy="44" r="3" fill="#10b981"/>
  <circle cx="44" cy="44" r="3" fill="#10b981"/>
  <circle cx="32" cy="16" r="3" fill="#f59e0b"/>
  <circle cx="32" cy="48" r="3" fill="#f59e0b"/>
  <circle cx="16" cy="32" r="3" fill="#f59e0b"/>
  <circle cx="48" cy="32" r="3" fill="#f59e0b"/>
  
  <!-- Connecting lines -->
  <line x1="32" y1="32" x2="20" y2="20" stroke="#64748b" stroke-width="2"/>
  <line x1="32" y1="32" x2="44" y2="20" stroke="#64748b" stroke-width="2"/>
  <line x1="32" y1="32" x2="20" y2="44" stroke="#64748b" stroke-width="2"/>
  <line x1="32" y1="32" x2="44" y2="44" stroke="#64748b" stroke-width="2"/>
  <line x1="32" y1="32" x2="32" y2="16" stroke="#64748b" stroke-width="2"/>
  <line x1="32" y1="32" x2="32" y2="48" stroke="#64748b" stroke-width="2"/>
  <line x1="32" y1="32" x2="16" y2="32" stroke="#64748b" stroke-width="2"/>
  <line x1="32" y1="32" x2="48" y2="32" stroke="#64748b" stroke-width="2"/>
  
  <!-- Additional pathway connections -->
  <line x1="20" y1="20" x2="32" y2="16" stroke="#94a3b8" stroke-width="1"/>
  <line x1="44" y1="20" x2="32" y2="16" stroke="#94a3b8" stroke-width="1"/>
  <line x1="20" y1="44" x2="32" y2="48" stroke="#94a3b8" stroke-width="1"/>
  <line x1="44" y1="44" x2="32" y2="48" stroke="#94a3b8" stroke-width="1"/>
  
  <!-- KEGG text -->
  <text x="32" y="58" text-anchor="middle" font-family="Arial, sans-serif" font-size="8" font-weight="bold" fill="#0ea5e9">KEGG</text>
</svg>