<svg width="64" height="64" viewBox="0 0 64 64" fill="none" xmlns="http://www.w3.org/2000/svg">
  <rect width="64" height="64" rx="12" fill="#10B981"/>
  <rect x="8" y="8" width="48" height="48" rx="8" fill="#FFFFFF" fill-opacity="0.1"/>
  <!-- Network nodes -->
  <circle cx="20" cy="20" r="3" fill="#FFFFFF"/>
  <circle cx="44" cy="20" r="3" fill="#FFFFFF"/>
  <circle cx="32" cy="32" r="4" fill="#FFFFFF"/>
  <circle cx="20" cy="44" r="3" fill="#FFFFFF"/>
  <circle cx="44" cy="44" r="3" fill="#FFFFFF"/>
  <circle cx="16" cy="32" r="2" fill="#FFFFFF"/>
  <circle cx="48" cy="32" r="2" fill="#FFFFFF"/>
  <!-- Network connections -->
  <line x1="20" y1="20" x2="32" y2="32" stroke="#FFFFFF" stroke-width="2"/>
  <line x1="44" y1="20" x2="32" y2="32" stroke="#FFFFFF" stroke-width="2"/>
  <line x1="20" y1="44" x2="32" y2="32" stroke="#FFFFFF" stroke-width="2"/>
  <line x1="44" y1="44" x2="32" y2="32" stroke="#FFFFFF" stroke-width="2"/>
  <line x1="16" y1="32" x2="32" y2="32" stroke="#FFFFFF" stroke-width="2"/>
  <line x1="48" y1="32" x2="32" y2="32" stroke="#FFFFFF" stroke-width="2"/>
  <line x1="20" y1="20" x2="20" y2="44" stroke="#FFFFFF" stroke-width="1" opacity="0.6"/>
  <line x1="44" y1="20" x2="44" y2="44" stroke="#FFFFFF" stroke-width="1" opacity="0.6"/>
</svg>