<svg width="64" height="64" viewBox="0 0 64 64" xmlns="http://www.w3.org/2000/svg">
  <!-- Background -->
  <rect width="64" height="64" fill="#fefefe" rx="8"/>
  <rect x="6" y="6" width="52" height="52" fill="#f8fafc" stroke="#e2e8f0" stroke-width="1" rx="4"/>
  
  <!-- Coordinate axes -->
  <line x1="12" y1="50" x2="56" y2="50" stroke="#64748b" stroke-width="2"/>
  <line x1="12" y1="50" x2="12" y2="12" stroke="#64748b" stroke-width="2"/>
  
  <!-- Protein quantification bars -->
  <rect x="16" y="35" width="4" height="15" fill="#ef4444" rx="1"/>
  <rect x="22" y="25" width="4" height="25" fill="#3b82f6" rx="1"/>
  <rect x="28" y="30" width="4" height="20" fill="#10b981" rx="1"/>
  <rect x="34" y="20" width="4" height="30" fill="#f59e0b" rx="1"/>
  <rect x="40" y="40" width="4" height="10" fill="#8b5cf6" rx="1"/>
  <rect x="46" y="28" width="4" height="22" fill="#06b6d4" rx="1"/>
  <rect x="52" y="32" width="4" height="18" fill="#84cc16" rx="1"/>
  
  <!-- Error bars -->
  <line x1="18" y1="33" x2="18" y2="37" stroke="#374151" stroke-width="1"/>
  <line x1="17" y1="33" x2="19" y2="33" stroke="#374151" stroke-width="1"/>
  <line x1="17" y1="37" x2="19" y2="37" stroke="#374151" stroke-width="1"/>
  
  <line x1="24" y1="23" x2="24" y2="27" stroke="#374151" stroke-width="1"/>
  <line x1="23" y1="23" x2="25" y2="23" stroke="#374151" stroke-width="1"/>
  <line x1="23" y1="27" x2="25" y2="27" stroke="#374151" stroke-width="1"/>
  
  <line x1="30" y1="28" x2="30" y2="32" stroke="#374151" stroke-width="1"/>
  <line x1="29" y1="28" x2="31" y2="28" stroke="#374151" stroke-width="1"/>
  <line x1="29" y1="32" x2="31" y2="32" stroke="#374151" stroke-width="1"/>
  
  <line x1="36" y1="18" x2="36" y2="22" stroke="#374151" stroke-width="1"/>
  <line x1="35" y1="18" x2="37" y2="18" stroke="#374151" stroke-width="1"/>
  <line x1="35" y1="22" x2="37" y2="22" stroke="#374151" stroke-width="1"/>
  
  <!-- Protein labels -->
  <text x="18" y="54" text-anchor="middle" font-family="Arial, sans-serif" font-size="4" fill="#64748b">P1</text>
  <text x="24" y="54" text-anchor="middle" font-family="Arial, sans-serif" font-size="4" fill="#64748b">P2</text>
  <text x="30" y="54" text-anchor="middle" font-family="Arial, sans-serif" font-size="4" fill="#64748b">P3</text>
  <text x="36" y="54" text-anchor="middle" font-family="Arial, sans-serif" font-size="4" fill="#64748b">P4</text>
  <text x="42" y="54" text-anchor="middle" font-family="Arial, sans-serif" font-size="4" fill="#64748b">P5</text>
  <text x="48" y="54" text-anchor="middle" font-family="Arial, sans-serif" font-size="4" fill="#64748b">P6</text>
  <text x="54" y="54" text-anchor="middle" font-family="Arial, sans-serif" font-size="4" fill="#64748b">P7</text>
  
  <!-- Y-axis labels -->
  <text x="10" y="52" text-anchor="end" font-family="Arial, sans-serif" font-size="4" fill="#64748b">0</text>
  <text x="10" y="42" text-anchor="end" font-family="Arial, sans-serif" font-size="4" fill="#64748b">25</text>
  <text x="10" y="32" text-anchor="end" font-family="Arial, sans-serif" font-size="4" fill="#64748b">50</text>
  <text x="10" y="22" text-anchor="end" font-family="Arial, sans-serif" font-size="4" fill="#64748b">75</text>
  <text x="10" y="12" text-anchor="end" font-family="Arial, sans-serif" font-size="4" fill="#64748b">100</text>
  
  <!-- Axis labels -->
  <text x="34" y="60" text-anchor="middle" font-family="Arial, sans-serif" font-size="6" fill="#64748b">Proteins</text>
  <text x="4" y="30" text-anchor="middle" font-family="Arial, sans-serif" font-size="6" fill="#64748b" transform="rotate(-90, 4, 30)">Abundance</text>
  
  <!-- Significance indicators -->
  <text x="24" y="16" text-anchor="middle" font-family="Arial, sans-serif" font-size="6" fill="#ef4444" font-weight="bold">***</text>
  <text x="36" y="14" text-anchor="middle" font-family="Arial, sans-serif" font-size="6" fill="#f59e0b" font-weight="bold">**</text>
  <text x="48" y="22" text-anchor="middle" font-family="Arial, sans-serif" font-size="6" fill="#10b981" font-weight="bold">*</text>
  
  <!-- Legend -->
  <rect x="46" y="12" width="10" height="12" fill="#ffffff" stroke="#e2e8f0" stroke-width="1" rx="1" opacity="0.9"/>
  <text x="47" y="15" font-family="Arial, sans-serif" font-size="3" fill="#ef4444">*** p<0.001</text>
  <text x="47" y="18" font-family="Arial, sans-serif" font-size="3" fill="#f59e0b">** p<0.01</text>
  <text x="47" y="21" font-family="Arial, sans-serif" font-size="3" fill="#10b981">* p<0.05</text>
  
  <!-- Title -->
  <text x="32" y="8" text-anchor="middle" font-family="Arial, sans-serif" font-size="7" font-weight="bold" fill="#475569">Protein Quantification</text>
</svg>